<svg width="102" height="92" viewBox="0 0 102 92" fill="none" xmlns="http://www.w3.org/2000/svg">
<g filter="url(#filter0_i_4_949)">
<path d="M70.904 21.6453C70.904 28.3394 65.4773 33.7661 58.7832 33.7661C52.0891 33.7661 46.6625 28.3394 46.6625 21.6453C46.6625 14.9512 52.0891 9.52457 58.7832 9.52457C65.4773 9.52457 70.904 14.9512 70.904 21.6453Z" fill="#FFAB0B"/>
</g>
<path fill-rule="evenodd" clip-rule="evenodd" d="M58.6002 3.54748C58.6335 3.5473 58.6669 3.54721 58.7002 3.54721C58.7336 3.54721 58.7669 3.5473 58.8002 3.54748C59.5338 3.55148 60.1253 4.14941 60.1213 4.883C60.1173 5.61659 59.5194 6.20804 58.7858 6.20405C58.7573 6.20389 58.7288 6.20381 58.7002 6.20381C58.6717 6.20381 58.6432 6.20389 58.6147 6.20405C57.8811 6.20804 57.2831 5.61659 57.2792 4.883C57.2752 4.14941 57.8666 3.55148 58.6002 3.54748ZM47.9107 8.7638C48.4266 9.28538 48.422 10.1264 47.9004 10.6423C47.8601 10.6821 47.82 10.7222 47.7802 10.7625C47.2643 11.2841 46.4233 11.2887 45.9017 10.7728C45.3801 10.2569 45.3755 9.41591 45.8914 8.89433C45.9381 8.84712 45.985 8.80017 46.0322 8.75348C46.5538 8.2376 47.3948 8.24222 47.9107 8.7638ZM69.4897 8.7638C70.0056 8.24222 70.8466 8.2376 71.3682 8.75348C71.4154 8.80017 71.4624 8.84712 71.509 8.89433C72.0249 9.41591 72.0203 10.2569 71.4987 10.7728C70.9771 11.2887 70.1361 11.2841 69.6202 10.7625C69.5804 10.7222 69.5403 10.6821 69.5 10.6423C68.9785 10.1264 68.9738 9.28538 69.4897 8.7638ZM75.3795 20.1412C76.1131 20.1373 76.711 20.7287 76.715 21.4623C76.7152 21.4956 76.7153 21.5289 76.7153 21.5623C76.7153 21.5957 76.7152 21.629 76.715 21.6623C76.711 22.3959 76.1131 22.9874 75.3795 22.9834C74.6459 22.9794 74.0545 22.3814 74.0585 21.6479C74.0586 21.6194 74.0587 21.5908 74.0587 21.5623C74.0587 21.5338 74.0586 21.5053 74.0585 21.4768C74.0545 20.7432 74.6459 20.1452 75.3795 20.1412ZM42.0209 20.1412C42.7545 20.1452 43.346 20.7432 43.342 21.4768C43.3418 21.5053 43.3417 21.5338 43.3417 21.5623C43.3417 21.5908 43.3418 21.6194 43.342 21.6479C43.346 22.3814 42.7545 22.9794 42.0209 22.9834C41.2873 22.9874 40.6894 22.3959 40.6854 21.6623C40.6852 21.629 40.6851 21.5957 40.6851 21.5623C40.6851 21.5289 40.6852 21.4956 40.6854 21.4623C40.6894 20.7287 41.2873 20.1373 42.0209 20.1412ZM45.9017 32.3518C46.4233 31.8359 47.2643 31.8406 47.7802 32.3621C47.82 32.4024 47.8601 32.4425 47.9004 32.4823C48.422 32.9982 48.4266 33.8392 47.9107 34.3608C47.3948 34.8824 46.5538 34.887 46.0322 34.3711C45.985 34.3244 45.9381 34.2775 45.8914 34.2303C45.3755 33.7087 45.3801 32.8677 45.9017 32.3518ZM71.4987 32.3518C72.0203 32.8677 72.0249 33.7087 71.509 34.2303C71.4624 34.2775 71.4154 34.3244 71.3682 34.3711C70.8466 34.887 70.0056 34.8824 69.4897 34.3608C68.9738 33.8392 68.9785 32.9982 69.5 32.4823C69.5403 32.4425 69.5804 32.4024 69.6202 32.3621C70.1361 31.8406 70.9771 31.8359 71.4987 32.3518ZM57.2792 38.2416C57.2831 37.508 57.8811 36.9166 58.6147 36.9206C58.6432 36.9207 58.6717 36.9208 58.7002 36.9208C58.7288 36.9208 58.7573 36.9207 58.7858 36.9206C59.5194 36.9166 60.1173 37.508 60.1213 38.2416C60.1253 38.9752 59.5338 39.5731 58.8002 39.5771C58.7841 39.5772 58.7681 39.5773 58.752 39.5773C58.7347 39.5774 58.7175 39.5774 58.7002 39.5774C58.6669 39.5774 58.6335 39.5773 58.6002 39.5771C57.8666 39.5731 57.2752 38.9752 57.2792 38.2416Z" fill="#FFE200"/>
<g filter="url(#filter1_bdi_4_949)">
<path fill-rule="evenodd" clip-rule="evenodd" d="M40.353 43.0624C40.2978 43.0636 40.2425 43.0642 40.187 43.0642C36.0605 43.0642 32.7153 39.719 32.7153 35.5925C32.7153 32.7921 34.2559 30.3516 36.5358 29.0721C36.5347 29.0042 36.5342 28.9362 36.5342 28.868C36.5342 22.0363 42.0723 16.4982 48.904 16.4982C54.7969 16.4982 59.7273 20.6188 60.9711 26.1359C65.4801 26.3253 69.0776 30.0407 69.0776 34.5963C69.0776 39.273 65.2863 43.0642 60.6096 43.0642C60.4984 43.0642 60.3877 43.0621 60.2776 43.0578V43.0642H40.353V43.0624Z" fill="url(#paint0_radial_4_949)" fill-opacity="0.77"/>
</g>
<g style="mix-blend-mode:soft-light" filter="url(#filter2_di_4_949)">
<path d="M47.6587 35.5925C47.6587 39.719 44.3135 43.0642 40.187 43.0642C36.0605 43.0642 32.7153 39.719 32.7153 35.5925C32.7153 31.466 36.0605 28.1208 40.187 28.1208C44.3135 28.1208 47.6587 31.466 47.6587 35.5925Z" fill="#848484"/>
</g>
<defs>
<filter id="filter0_i_4_949" x="36.6625" y="9.52457" width="34.2415" height="37.2415" filterUnits="userSpaceOnUse" color-interpolation-filters="sRGB">
<feFlood flood-opacity="0" result="BackgroundImageFix"/>
<feBlend mode="normal" in="SourceGraphic" in2="BackgroundImageFix" result="shape"/>
<feColorMatrix in="SourceAlpha" type="matrix" values="0 0 0 0 0 0 0 0 0 0 0 0 0 0 0 0 0 0 127 0" result="hardAlpha"/>
<feOffset dx="-10" dy="13"/>
<feGaussianBlur stdDeviation="12"/>
<feComposite in2="hardAlpha" operator="arithmetic" k2="-1" k3="1"/>
<feColorMatrix type="matrix" values="0 0 0 0 1 0 0 0 0 0.886275 0 0 0 0 0 0 0 0 0.9 0"/>
<feBlend mode="normal" in2="shape" result="effect1_innerShadow_4_949"/>
</filter>
<filter id="filter1_bdi_4_949" x="0.715302" y="0.498169" width="100.362" height="90.566" filterUnits="userSpaceOnUse" color-interpolation-filters="sRGB">
<feFlood flood-opacity="0" result="BackgroundImageFix"/>
<feGaussianBlur in="BackgroundImageFix" stdDeviation="7.5"/>
<feComposite in2="SourceAlpha" operator="in" result="effect1_backgroundBlur_4_949"/>
<feColorMatrix in="SourceAlpha" type="matrix" values="0 0 0 0 0 0 0 0 0 0 0 0 0 0 0 0 0 0 127 0" result="hardAlpha"/>
<feOffset dy="16"/>
<feGaussianBlur stdDeviation="16"/>
<feColorMatrix type="matrix" values="0 0 0 0 0 0 0 0 0 0.2015 0 0 0 0 0.3875 0 0 0 0.2 0"/>
<feBlend mode="normal" in2="effect1_backgroundBlur_4_949" result="effect2_dropShadow_4_949"/>
<feBlend mode="normal" in="SourceGraphic" in2="effect2_dropShadow_4_949" result="shape"/>
<feColorMatrix in="SourceAlpha" type="matrix" values="0 0 0 0 0 0 0 0 0 0 0 0 0 0 0 0 0 0 127 0" result="hardAlpha"/>
<feOffset dx="3" dy="3"/>
<feGaussianBlur stdDeviation="2.5"/>
<feComposite in2="hardAlpha" operator="arithmetic" k2="-1" k3="1"/>
<feColorMatrix type="matrix" values="0 0 0 0 1 0 0 0 0 1 0 0 0 0 1 0 0 0 1 0"/>
<feBlend mode="normal" in2="shape" result="effect3_innerShadow_4_949"/>
</filter>
<filter id="filter2_di_4_949" x="24.7153" y="12.1208" width="26.9434" height="32.9434" filterUnits="userSpaceOnUse" color-interpolation-filters="sRGB">
<feFlood flood-opacity="0" result="BackgroundImageFix"/>
<feColorMatrix in="SourceAlpha" type="matrix" values="0 0 0 0 0 0 0 0 0 0 0 0 0 0 0 0 0 0 127 0" result="hardAlpha"/>
<feOffset dx="-2" dy="-10"/>
<feGaussianBlur stdDeviation="3"/>
<feColorMatrix type="matrix" values="0 0 0 0 0 0 0 0 0 0 0 0 0 0 0 0 0 0 0.22 0"/>
<feBlend mode="normal" in2="BackgroundImageFix" result="effect1_dropShadow_4_949"/>
<feBlend mode="normal" in="SourceGraphic" in2="effect1_dropShadow_4_949" result="shape"/>
<feColorMatrix in="SourceAlpha" type="matrix" values="0 0 0 0 0 0 0 0 0 0 0 0 0 0 0 0 0 0 127 0" result="hardAlpha"/>
<feOffset dx="4" dy="2"/>
<feGaussianBlur stdDeviation="2.5"/>
<feComposite in2="hardAlpha" operator="arithmetic" k2="-1" k3="1"/>
<feColorMatrix type="matrix" values="0 0 0 0 1 0 0 0 0 1 0 0 0 0 1 0 0 0 0.74 0"/>
<feBlend mode="normal" in2="shape" result="effect2_innerShadow_4_949"/>
</filter>
<radialGradient id="paint0_radial_4_949" cx="0" cy="0" r="1" gradientUnits="userSpaceOnUse" gradientTransform="translate(45.5275 22.1625) rotate(90.6693) scale(20.8923 23.8409)">
<stop stop-color="white"/>
<stop offset="1" stop-color="#99CEFF"/>
</radialGradient>
</defs>
</svg>
